HIERARCHY
ROOT pelvis
{
  OFFSET 0 100 0
  CHANNELS 6 Xposition Yposition Zposition Zrotation Xrotation Yrotation
  JOINT pelvis_right_femur
  {
    OFFSET -10.78128 -3.44521 -0.5502486
    CHANNELS 3 Zrotation Xrotation Yrotation
    JOINT right_femur_tibia
    {
      OFFSET -0.8047443 -44.0398 -0.1307829
      CHANNELS 3 Zrotation Xrotation Yrotation
      JOINT right_tibia_foot
      {
        OFFSET 3.006224 -47.83518 -5
        CHANNELS 3 Zrotation Xrotation Yrotation
        End Site
        {
          OFFSET 0 -5 15
        }
      }
    }
  }
  JOINT pelvis_left_femur
  {
    OFFSET 10.78128 -3.44521 -0.5502486
    CHANNELS 3 Zrotation Xrotation Yrotation
    JOINT left_femur_tibia
    {
      OFFSET 0.8047443 -44.0398 -0.1307829
      CHANNELS 3 Zrotation Xrotation Yrotation
      JOINT left_tibia_foot
      {
        OFFSET -4.370144 -48.10324 -4.275266
        CHANNELS 3 Zrotation Xrotation Yrotation
        End Site
        {
          OFFSET 0 -5 15
        }
      }
    }
  }
  JOINT pelvis_spine1
  {
    OFFSET 0 6.468898 -3.129235
    CHANNELS 3 Zrotation Xrotation Yrotation
    JOINT spine1
    {
      OFFSET 0 23.15396 4.99043
      CHANNELS 3 Zrotation Xrotation Yrotation
      JOINT spine2
      {
        OFFSET 0 20.79997 -5.064912
        CHANNELS 3 Zrotation Xrotation Yrotation
        JOINT neck
        {
          OFFSET 0 14.38658 9.616178
          CHANNELS 3 Zrotation Xrotation Yrotation
          End Site
          {
            OFFSET 0 20 0
          }
        }
      }
      JOINT right_manubrium
      {
        OFFSET -5.722621 16.35077 3.967754
        CHANNELS 3 Zrotation Xrotation Yrotation
        JOINT right_clavicle
        {
          OFFSET -13.16364 1.694482 -4.693211
          CHANNELS 3 Zrotation Xrotation Yrotation
          JOINT right_humerus
          {
            OFFSET -28.5034 -0.3100689 -2.792744
            CHANNELS 3 Zrotation Xrotation Yrotation
            JOINT right_radius
            {
              OFFSET -25.15693 0.02248979 -1.271978
              CHANNELS 3 Zrotation Xrotation Yrotation
              End Site
              {
                OFFSET -15 0 0
              }
            }
          }
        }
      }
      JOINT left_manubrium
      {
        OFFSET 5.722621 16.35077 3.967754
        CHANNELS 3 Zrotation Xrotation Yrotation
        JOINT left_clavicle
        {
          OFFSET 13.16364 1.694482 -4.693211
          CHANNELS 3 Zrotation Xrotation Yrotation
          JOINT left_humerus
          {
            OFFSET 29.39168 -1.063119 -2.237045
            CHANNELS 3 Zrotation Xrotation Yrotation
            JOINT left_radius
            {
              OFFSET 24.59957 -0.9528479 0.9047498
              CHANNELS 3 Zrotation Xrotation Yrotation
              End Site
              {
                OFFSET 15 -0 -0
              }
            }
          }
        }
      }
    }
  }
}
MOTION
Frames: 11
Frame Time: 0.0416666666667
57.51448 102.4329 271.3685 4.369276 -9.621869 6.701833 -2.156237 10.44671 4.897197 -0 45.33118 -0 6.009363 -9.127341 -4.098412 -6.153941 -6.904448 -9.569496 -0 23.56694 -0 -7.00904 -10.20993 17.45664 -2.566709 -1.152516 7.051777 -1.918105 8.801132 -2.982497 2.149873 23.1739 5.81267 1.172308 -14.82314 8.513932 1.282899 -18.13001 9.911539 85.52345 21.37861 -11.4725 -0 0 20.77793 -24.55502 13.5935 11.95686 4.339113 -13.68975 -3.817402 -90.30079 25.34513 19.9755 0 0 -10.45566 -3.748055 6.445739 17.37928
59.01485 103.3935 277.194 4.416389 -9.781847 7.91244 -2.038682 4.656638 4.037564 -0 46.35673 -0 5.272873 -8.802402 -5.159817 -6.453794 -1.677443 -9.954745 -0 22.31553 -0 -6.855953 -11.52146 16.78957 -2.632195 -0.8135464 5.924673 -1.646261 8.671223 -3.656938 2.102778 23.51862 5.913226 0.9574886 -14.60529 8.800067 1.350175 -17.12874 9.65904 86.82554 21.75054 -13.06377 -0 0 18.85748 -23.69653 13.59141 11.38552 4.434345 -14.57217 -4.108689 -88.35565 25.7768 16.60937 0 0 -12.16021 -3.064319 6.902219 16.52473
60.41557 104.1297 282.787 4.439183 -9.730584 9.18913 -1.973627 -1.284245 3.332895 -0 44.57322 -0 4.405442 -8.677094 -6.121273 -6.550061 3.359972 -10.23937 -0 20.81458 -0 -6.756658 -12.90984 16.0564 -2.693878 -0.4887381 4.792661 -1.317927 8.464427 -4.432346 2.127088 23.79854 5.94921 0.7894311 -14.41673 9.052823 1.206196 -16.10598 9.353239 88.10371 22.09107 -14.72722 -0 0 17.00833 -22.79988 13.53343 10.79579 4.664008 -15.58302 -4.38869 -86.31634 26.0989 12.92918 0 0 -14.24616 -2.275141 7.427078 15.47238
61.7236 104.474 288.274 4.447074 -9.451056 10.46412 -1.990447 -6.934623 2.785407 -0 40.23592 -0 3.444549 -8.671134 -6.949293 -6.5022 8.006864 -10.45535 -0 19.32964 -0 -6.727668 -14.29737 15.28276 -2.781333 -0.2446439 3.753198 -0.9532323 8.17569 -5.239627 2.239723 23.9905 5.9009 0.6822149 -14.28706 9.255156 0.8707645 -15.07199 9.000725 89.29747 22.37101 -16.39932 -0 0 15.2421 -21.88401 13.40948 10.18092 5.014018 -16.648 -4.616748 -84.31007 26.29385 9.15445 0 0 -16.57174 -1.412971 8.000861 14.27033
62.94702 104.369 293.7744 4.436761 -9.019001 11.66901 -2.019763 -11.90843 2.354289 -0 34.35688 -0 2.412631 -8.798724 -7.64657 -6.356511 12.14481 -10.60552 -0 18.28562 -0 -6.781803 -15.5747 14.53012 -2.878484 -0.08811536 2.885291 -0.5804715 7.836614 -5.966048 2.41522 24.1021 5.772904 0.6286417 -14.24184 9.387151 0.4559112 -14.0548 8.658638 90.36796 22.59597 -18.00057 -0 0 13.48467 -20.93734 13.23193 9.508821 5.421841 -17.70132 -4.750477 -82.46776 26.36648 5.5414 0 0 -18.93168 -0.507332 8.600123 12.98479
64.09037 103.8817 299.3805 4.402482 -8.544334 12.73474 -1.95936 -15.89732 2.011566 -0 28.15387 -0 1.325491 -9.096654 -8.23049 -6.14569 15.69552 -10.68025 -0 18.11367 -0 -6.92292 -16.62111 13.87251 -2.948971 -0.001913742 2.240604 -0.2257252 7.49307 -6.505432 2.6136 24.15617 5.580989 0.6133255 -14.29772 9.432563 0.08907683 -13.09245 8.388847 91.29072 22.78664 -19.45037 -0 0 11.65444 -19.94193 13.01906 8.749285 5.812814 -18.68099 -4.758454 -80.90353 26.34576 2.335503 0 0 -21.11012 0.4118168 9.202278 11.68721
65.15702 103.1565 305.1609 4.328848 -8.127105 13.60186 -1.718061 -18.71964 1.793081 -0 22.57287 -0 0.2090348 -9.529103 -8.706987 -5.872711 18.57645 -10.68037 -0 19.09578 -0 -7.140953 -17.30306 13.38332 -2.956758 0.02529898 1.812325 0.09559029 7.187164 -6.826195 2.806349 24.18478 5.342785 0.6239597 -14.44813 9.389724 -0.1656899 -12.22949 8.211027 92.05329 22.96086 -20.67359 -0 0 9.767895 -18.90432 12.78179 7.916658 6.133177 -19.5149 -4.639885 -79.70872 26.28007 -0.2680953 0 0 -22.9169 1.305603 9.786739 10.45025
66.15396 102.3777 311.1635 4.186524 -7.872278 14.23631 -1.199707 -20.2185 1.809717 -0 18.43767 -0 -0.8898542 -9.964514 -9.054198 -5.502627 20.63466 -10.6224 -0 21.46947 -0 -7.416191 -17.42439 13.16057 -2.860483 -0.007842212 1.540036 0.3729597 6.962941 -6.965529 2.976397 24.23453 5.07638 0.652648 -14.66399 9.268756 -0.3007622 -11.52861 8.105215 92.64285 23.13062 -21.57158 -0 0 7.960241 -17.85959 12.52507 7.076766 6.33857 -20.09342 -4.420659 -78.99632 26.23293 -2.057164 0 0 -24.12887 2.113048 10.33161 9.367828
67.09251 101.7422 317.4121 3.959379 -7.861416 14.63313 -0.3553001 -20.29359 2.147887 -0 16.2728 -0 -1.922675 -10.27627 -9.241201 -5.007337 21.70527 -10.52331 -0 25.34223 -0 -7.71997 -16.83747 13.2913 -2.635304 -0.09724415 1.361236 0.5984797 6.854902 -6.979091 3.115544 24.34765 4.797707 0.6946166 -14.91072 9.085164 -0.3337663 -11.04978 8.042304 93.04261 23.30437 -22.05403 -0 0 6.394583 -16.85496 12.25182 6.308602 6.3973 -20.32484 -4.138228 -78.85387 26.25981 -2.870735 0 0 -24.56165 2.77306 10.82138 8.524557
67.98643 101.4123 323.8845 3.685575 -8.112835 14.80739 0.7222491 -18.97329 2.747388 -0 15.90463 -0 -2.864353 -10.46807 -9.255862 -4.438736 21.63592 -10.37761 -0 30.4848 -0 -7.99759 -15.61001 13.80557 -2.312902 -0.1981445 1.272511 0.7655212 6.873634 -6.892895 3.2246 24.54067 4.519523 0.747903 -15.16089 8.858121 -0.2888903 -10.83548 8.013392 93.21982 23.48766 -22.06851 -0 0 5.191211 -15.94905 11.96028 5.678579 6.303349 -20.20917 -3.83521 -79.28534 26.37679 -2.696977 0 0 -24.16064 3.24715 11.25208 7.959364
68.85123 101.4621 330.4766 3.465417 -8.59534 14.78726 1.801611 -16.36771 3.412358 -0 16.48644 -0 -3.710638 -10.68427 -9.105345 -3.943845 20.20189 -10.15494 -0 36.3229 -0 -8.149662 -14.02372 14.69034 -1.986982 -0.2100864 1.339753 0.8639631 7.012734 -6.694695 3.310475 24.80993 4.254788 0.8131611 -15.39071 8.611928 -0.1933994 -10.9308 8.034642 93.10839 23.68242 -21.56823 -0 0 4.457669 -15.22809 11.64117 5.256952 6.071337 -19.82883 -3.56386 -80.23989 26.55992 -1.630885 0 0 -22.95587 3.508008 11.62471 7.681229
